# xmcd
#
# Track frame offsets:
#	150
#	19817
#	37892
#	57905
#	75567
#	88255
#	101180
#	117017
#	131355
#	145005
#	162155
#	176955
#	189592
#	205680
#	221617
#	234005
#	250717
#	262317
#	277392
#	293742
#	304267
#	318630
#	329767
#	341692
#
# Disc length: 4711 seconds
#
# Revision: 0
# Processed by: cddbd v1.4PL0 Copyright (c) Steve Scherf et al.
# Submitted via: dBpowerAMP V4.0
#
DISCID=6c126518
DTITLE=Various Artists  - 48 All Time Love Classics CD1
DYEAR=1900
DGENRE=Oldies
TTITLE0=St. Lucia By Pooh
TTITLE1=I'd Love You To Want Me By Lobo
TTITLE2=Me And Mrs. Jones By Billy Paul
TTITLE3=Honey By Bobby Goldsboro
TTITLE4=It Must Be Him By Vikki Carr
TTITLE5=Don't Play That Song By Ben E. King
TTITLE6=Seasons In The Sun By Tarry Jacks
TTITLE7=Dream A Little Dream Of Me By The Mamas and The Papas
TTITLE8=The Sun Ain't Gonna Shine Anymore By The Walker Brothers
TTITLE9=Nel Sole By Al Bano
TTITLE10=Relis Me By Ester Phillips
TTITLE11=Blue Velvet By Bobby Vinton
TTITLE12=Something's Gotten Hold Of My Hart By Gene Pitneyack
TTITLE13=Angel Of The Morning By Nina Simone
TTITLE14=If I Only Had Time By John Rowles
TTITLE15=Poor Side Of Town By Johnny Rivers
TTITLE16=Put A Little Love In Your Hart By Jackie De Shannon
TTITLE17=Silence Is Golden By The Four Seasons
TTITLE18=Tu Sei L'unica Donna Per Me By Alan Sorrenti
TTITLE19=Welcome To My World By Dean Martin
TTITLE20=I Need You By Joe Dolan
TTITLE21=Last Date By Floyd Cramer
TTITLE22=Red Red Winw By Neil Diamond
TTITLE23=Something Stupid By Nancy and Frank Sinatra
EXTD=
EXTT0=
EXTT1=
EXTT2=
EXTT3=
EXTT4=
EXTT5=
EXTT6=
EXTT7=
EXTT8=
EXTT9=
EXTT10=
EXTT11=
EXTT12=
EXTT13=
EXTT14=
EXTT15=
EXTT16=
EXTT17=
EXTT18=
EXTT19=
EXTT20=
EXTT21=
EXTT22=
EXTT23=
PLAYORDER=
